<svg width="155" height="155" viewBox="0 0 155 155" fill="none" xmlns="http://www.w3.org/2000/svg">
<path d="M155 29C155 12.9837 142.016 0 126 0H29C12.9837 0 0 12.9837 0 29V126C0 142.016 12.9837 155 29 155H126C142.016 155 155 142.016 155 126V29Z" fill="#0246CC"/>
<path d="M77.5 54.6521C102.065 54.6521 121.978 47.8098 121.978 39.3694C121.978 30.929 102.065 24.0867 77.5 24.0867C52.9354 24.0867 33.0218 30.929 33.0218 39.3694C33.0218 47.8098 52.9354 54.6521 77.5 54.6521Z" fill="white"/>
<path d="M33.0399 76.4867V91.6759C33.0399 96.6868 50.3603 103.965 77.5001 103.965C104.64 103.965 121.96 96.6868 121.96 91.6759V76.4867C112.817 82.4469 95.0968 85.5314 77.5001 85.5314C59.9034 85.5314 42.1828 82.4469 33.0399 76.4867Z" fill="#287EFF"/>
<path d="M33.0399 50.5847V67.5282C33.0399 72.5391 50.3603 79.8172 77.5001 79.8172C104.64 79.8172 121.96 72.5391 121.96 67.5282V50.5847C113.453 57.1317 97.1229 61.3837 77.5001 61.3837C57.8772 61.3837 41.5476 57.1317 33.0399 50.5847Z" fill="#96C0FF"/>
<path d="M33.0399 101.065V116.254C33.0399 121.265 50.3603 128.543 77.5001 128.543C104.64 128.543 121.96 121.265 121.96 116.254V101.065C112.817 107.025 95.0968 110.11 77.5001 110.11C59.9034 110.11 42.1828 107.025 33.0399 101.065Z" fill="#0258ED"/>
</svg>
